<svg width="100" height="100" viewBox="0 0 100 100" xmlns="http://www.w3.org/2000/svg">
  <defs>
    <!-- Base grid pattern -->
    <pattern id="grid" x="0" y="0" width="20" height="20" patternUnits="userSpaceOnUse">
      <path d="M 20 0 L 0 20 M 0 0 L 20 20" stroke="#2c3e50" stroke-width="0.5" fill="none" opacity="0.12"/>
    </pattern>
    
    <!-- Tech dots pattern -->
    <pattern id="dots" x="0" y="0" width="20" height="20" patternUnits="userSpaceOnUse">
      <circle cx="10" cy="10" r="1" fill="#3498db" opacity="0.15"/>
      <circle cx="0" cy="0" r="0.5" fill="#3498db" opacity="0.1"/>
      <circle cx="0" cy="20" r="0.5" fill="#3498db" opacity="0.1"/>
      <circle cx="20" cy="0" r="0.5" fill="#3498db" opacity="0.1"/>
      <circle cx="20" cy="20" r="0.5" fill="#3498db" opacity="0.1"/>
    </pattern>
    
    <!-- Digital circuit lines -->
    <pattern id="circuit" x="0" y="0" width="100" height="100" patternUnits="userSpaceOnUse">
      <path d="M 30 10 L 70 10 L 70 40 L 90 40" stroke="#2980b9" stroke-width="0.8" fill="none" opacity="0.08"/>
      <path d="M 10 30 L 30 30 L 30 70 L 60 70 L 60 90" stroke="#2980b9" stroke-width="0.8" fill="none" opacity="0.08"/>
      <circle cx="30" cy="10" r="2" fill="#3498db" opacity="0.1"/>
      <circle cx="70" cy="40" r="2" fill="#3498db" opacity="0.1"/>
      <circle cx="30" cy="70" r="2" fill="#3498db" opacity="0.1"/>
    </pattern>
  </defs>
  
  <!-- Apply all patterns -->
  <rect width="100" height="100" fill="#1a2a3a"/>
  <rect width="100" height="100" fill="url(#grid)"/>
  <rect width="100" height="100" fill="url(#dots)"/>
  <rect width="100" height="100" fill="url(#circuit)"/>
  
  <!-- Subtle gradient overlay -->
  <rect width="100" height="100" fill="url(#gradient)" opacity="0.3"/>
  
  <!-- Define gradient -->
  <linearGradient id="gradient" x1="0%" y1="0%" x2="100%" y2="100%">
    <stop offset="0%" style="stop-color:#1a2a3a;stop-opacity:0.7"/>
    <stop offset="100%" style="stop-color:#2c3e50;stop-opacity:0.7"/>
  </linearGradient>
</svg>